PathFileType	4	(X/Y/Z)	16_2_104_p1_0-746.trc
DataRate	CameraRate	NumFrames	NumMarkers	Units	OrigDataRate	OrigDataStartFrame	OrigNumFrames
59.0	59.0	7	27	m	59.0	93	747
Frame#	Time	RHip			RKnee			RAnkle			RBigToe			RSmallToe			RHeel			LHip			LKnee			LAnkle			LBigToe			LSmallToe			LHeel			Neck			Head			Nose			RShoulder			RElbow			RWrist			RThumb			RIndex			RPinky			LShoulder			LElbow			LWrist			LThumb			LIndex			LPinky			
		X1	Y1	Z1	X2	Y2	Z2	X3	Y3	Z3	X4	Y4	Z4	X5	Y5	Z5	X6	Y6	Z6	X7	Y7	Z7	X8	Y8	Z8	X9	Y9	Z9	X10	Y10	Z10	X11	Y11	Z11	X12	Y12	Z12	X13	Y13	Z13	X14	Y14	Z14	X15	Y15	Z15	X16	Y16	Z16	X17	Y17	Z17	X18	Y18	Z18	X19	Y19	Z19	X20	Y20	Z20	X21	Y21	Z21	X22	Y22	Z22	X23	Y23	Z23	X24	Y24	Z24	X25	Y25	Z25	X26	Y26	Z26	X27	Y27	Z27	
93	1.576271186440678	0.3059482726329494	0.5094342295270634	0.518236597300879	0.2966832804302405	0.6289651206602808	0.9565031068640406	0.27761799414734784	0.7174107426356165	1.3711404527411115	0.24109276785815367	0.4316687113668493	1.3599452004850516	0.30924558468887897	0.46324280988923905	1.3679557402612554	0.2509574466298842	0.7993185992523275	1.4411675446756667	0.08069747424000615	0.5511018384029572	0.5145125617004767	0.08986872767949158	0.6268837767459992	0.9450822088708892	0.0988583809755714	0.7185346763966184	1.370243715166996	0.07435562224747908	0.42071501997638133	1.3415693470312788	0.024608725356149264	0.479649465028361	1.35126601160918	0.12228455502450043	0.7970099149499866	1.4493044101678263	0.1961248555914591	0.4584867802086356	-0.1582752576687291	0.21591617634892507	0.3737477070572863	-0.39632622241214144	0.18639469606840797	0.3457875020359835	-0.2630749346754622	0.3696484132622698	0.4634188640962383	-0.0543578862020252	0.46307229767156227	0.521763764841948	0.2292000193002714	0.5353146557406642	0.43960741462368835	0.5053815904438725	0.5544328197595182	0.3892347874646434	0.6082439677483328	0.5602271351086325	0.4022611394793743	0.6195609338822875	0.5442341454457028	0.4567610607604102	0.6486374412669818	0.01699811006731844	0.5061480274894563	-0.06528408754610557	-0.06907710366579338	0.5230651886065808	0.20671329622665763	-0.10636412880254865	0.4343117471802201	0.4885026466133001	-0.05732736505966345	0.35740769148154755	0.5884875646109868	-0.08734714112731756	0.35126073761917853	0.5967386725191356	-0.1266940952444382	0.42614470821987616	0.6144810255057871
94	1.5932203389830508	0.3060632536971455	0.5097979216969444	0.5183039350736643	0.29765017725970355	0.6306841510402642	0.9613974115966647	0.2775933174901305	0.7171780531190494	1.3708462878044998	0.23672441791440407	0.41906407607352214	1.3542063451175104	0.31338830332982864	0.46490786380641347	1.368812286083836	0.250948198381469	0.7991868456003406	1.440927301782166	0.08056982678683153	0.550804373482583	0.517833105135801	0.08997392025960801	0.6273345042512971	0.9452442476157883	0.10235367285679232	0.7339137473171251	1.3769589820098116	0.07438683720591999	0.4203265448509279	1.3415366588932438	0.024842769388170583	0.4783886134554044	1.355169114445111	0.1168906006812519	0.8132073486814748	1.453689343875399	0.19599422192847993	0.45841541007800135	-0.15835490106417743	0.2124187755971865	0.385849923578482	-0.3976289752119016	0.1862722903333254	0.34590507591775793	-0.2631708293200943	0.3665195594862572	0.47733424296840304	-0.05415703003731945	0.4627926497373312	0.5219233218916963	0.23291957798338264	0.5359803089101987	0.44036815949466873	0.5091700888116459	0.5575057214022243	0.3750983178091613	0.6091236235687182	0.5569442427300092	0.39213762414350156	0.625120486356604	0.54157115163841	0.4566765442218397	0.6525943003883811	0.01693731027360958	0.5061525359354319	-0.06528408809445979	-0.0734449138003239	0.5375877310871893	0.21190096992406007	-0.10636166610893374	0.43438174803966145	0.4884660865802585	-0.05754476517060633	0.3561566376720612	0.5843176057538034	-0.08346760553702436	0.3522823226766528	0.5965018108983767	-0.12676955596859846	0.42596820408789254	0.6142449045306774
95	1.6101694915254237	0.3061659764783026	0.5099087129684805	0.5182176141819046	0.29734678643858803	0.6285816162781258	0.9520627656575542	0.27764478063371467	0.7176156569599571	1.371238457537135	0.24086064013501635	0.4316016507827413	1.3603464151978997	0.30905465069695437	0.4635612837096998	1.3682461724201127	0.2511137353974829	0.7998722016627466	1.4419939535387323	0.08087234002321245	0.550952371977191	0.5177680987423727	0.08986985369325816	0.627287494387055	0.9451785770669797	0.10284020489393113	0.734152298769409	1.367522748149658	0.06942028291979309	0.420139669371224	1.341770001479353	0.024397667174660694	0.4800923084975612	1.3515490705890518	0.11785430675156064	0.81567072913648	1.4582274297903093	0.19589118542827066	0.45846581046556156	-0.15835187785036314	0.2046194999178097	0.39710399470336116	-0.4020455653757173	0.18282493059502852	0.35810191058179697	-0.2639036862112434	0.3663830155868829	0.4776971084691011	-0.05414993797494965	0.46287014125403275	0.5218319211525226	0.22938960699707397	0.5308602537259697	0.42913801689427067	0.5072959755914561	0.5468458669897241	0.3525778840064232	0.601018845754098	0.5566642899480858	0.3916864505247823	0.6250839077980723	0.5502295835236605	0.4687134617879354	0.6549551517895557	0.01689970649815069	0.5062608695296927	-0.06520175498789431	-0.06882651448728307	0.5245276227114205	0.21068185212910373	-0.1037476295905795	0.4468025470967565	0.4905810670170842	-0.0576249124082511	0.3567134488684212	0.5807509289387742	-0.07952025620269233	0.35290294541038725	0.5966120772384781	-0.12284446027965952	0.4275214676819001	0.6142087194502132
96	1.6271186440677967	0.31024507893698117	0.5224505285872595	0.5204051431926835	0.2975696349753526	0.630884138582705	0.961597906328983	0.27761965988193554	0.7174188425760214	1.3710026562853546	0.24122996745039163	0.4206177960199725	1.355288295756101	0.3142158324211378	0.4656456961907204	1.3687278797072557	0.2520163742442608	0.8025451097339624	1.4489301639002843	0.08087448797196163	0.550544125195558	0.5219156538065405	0.08991012320587785	0.6269257347039566	0.9452340157246648	0.10231963400532534	0.7336456626267093	1.3770238440869929	0.07461049127507055	0.42051943416320714	1.3416816879754094	0.029814196678995833	0.464071370356974	1.348420819791777	0.12211897629441175	0.7969319041874788	1.4498581930432797	0.1921374051768184	0.44709054599691495	-0.15441688613330384	0.19344389887204969	0.39724220561622137	-0.3983608737978924	0.18291095460044618	0.35874501058297925	-0.26056956404376597	0.36244070054635436	0.4770853747781578	-0.05388882117779163	0.46280481550485053	0.5217089579502865	0.22942648237014762	0.5235492191823438	0.4409331343127659	0.5059381604496022	0.5403928606760559	0.32548214184207497	0.5992332894865243	0.5541493156542627	0.37515456097321015	0.621451450188278	0.5408043883807392	0.4548400213997606	0.6517158417059543	0.016875928557138355	0.5062161415108459	-0.06518801564677723	-0.06846756874665826	0.526003121509079	0.21476190748312649	-0.10590025772016244	0.4354306165654495	0.49266754917171346	-0.057021323905031826	0.35699826783897376	0.5882949112594478	-0.07948203210461338	0.3528451127006342	0.59680101408852	-0.1229421368704029	0.4281175106161356	0.6109991258782709
97	1.6440677966101696	0.3094599564432798	0.49542926649129043	0.5151354293925027	0.29824996750353105	0.6303961559446342	0.9570962937608035	0.27761727180717555	0.7174471884889527	1.3710188968488104	0.24110320270232902	0.42131159234424753	1.3553366103819042	0.3140502981535363	0.46593071756763565	1.3688148300600853	0.2523298732974212	0.8026360156777598	1.4493132717483115	0.08452640347326927	0.5343378544104965	0.5102740647938313	0.08983714596399248	0.6268337750348666	0.9451466851846649	0.09884354642730944	0.7184135638682827	1.3702222999298852	0.0745429952122159	0.4205239149756727	1.3416780114648994	0.025932687592121535	0.4778260574276933	1.3514067246146044	0.12205428140523396	0.7967014161462664	1.4498024025384035	0.1882105060620816	0.44564896471741716	-0.15419200007479092	0.18969791576048778	0.38599572553959316	-0.3969183629409768	0.17858244577205865	0.3575173524584338	-0.26026144683100355	0.3592667481551898	0.4911157561291874	-0.05370404862629104	0.4539121780967176	0.5091688668671132	0.22859931117521268	0.5201091443954425	0.44061208167231874	0.5100324525997947	0.5404895341779028	0.3253533880104101	0.5994313683242173	0.555767403345502	0.35998073804751196	0.6175386174768276	0.5450692810493725	0.45627776155230976	0.6439398897754032	0.016852550252625765	0.5063380198507608	-0.06508732189555261	-0.07346102751309184	0.5375291919443795	0.21212569112978577	-0.1059438534817783	0.4353648033028885	0.49260552226418336	-0.056935615695904	0.35573235115494034	0.5773167600173464	-0.07475289518684074	0.34098704976700717	0.5940521262876032	-0.12269590483372911	0.42822097246916335	0.6112694113034333
98	1.6610169491525424	0.3091887913058849	0.5066222948052548	0.5171149535476065	0.2966435712305801	0.6291174664206596	0.956548734239711	0.277628526144643	0.7173929082811904	1.3709170215121749	0.2410213504705018	0.43197162924085186	1.3601300835205863	0.31405079955436194	0.4665330145118164	1.3689883309000572	0.25122743948143655	0.7990741817945749	1.440641116970619	0.08435203819831273	0.5340648159093444	0.5101955784374006	0.08973441916875674	0.626782600586805	0.9450719545492793	0.09884704425818712	0.7183787640364903	1.3701014737012143	0.07454448559025303	0.4205505232939604	1.341861132489454	0.024906190295757417	0.47856127234020446	1.355407881380695	0.12221146453997406	0.7968768367131123	1.449693389422457	0.1880534329321139	0.44562481049145936	-0.15408064729765403	0.1855363779399175	0.38484755975640145	-0.3965968165698458	0.1750672034493814	0.36930483123301083	-0.2608765461084142	0.3591333490345486	0.4910529261054487	-0.05373747728258889	0.45386332303275856	0.5089553730014449	0.22841968940887372	0.5109123864283577	0.4284970135619191	0.5078962987500636	0.5357659933685089	0.3149595320417432	0.5969540942903774	0.5511830722076119	0.3492758217674577	0.6151700383239302	0.5376751518649203	0.4365937186465179	0.6394989301287186	0.016899091254972867	0.5066327103263959	-0.06152260149080725	-0.07319691645110624	0.5390300068537562	0.21614852868647247	-0.10590333187865626	0.43514155711667185	0.49278075253071446	-0.05699627734885965	0.3573227146717349	0.5844639759440063	-0.07467722007102064	0.341009451525381	0.5942649325379074	-0.12267490304196647	0.42837326714767904	0.611323868010002
99	1.6779661016949152	0.31344709535475007	0.5077008766448062	0.5171691676622697	0.29824940382857507	0.630574984959353	0.9569306631652152	0.2777147308694134	0.7177404173378754	1.3711868568123997	0.2371726868590575	0.4476973065222894	1.3679810205258907	0.30928537200988615	0.4646014061863212	1.3683024740108853	0.2515569351976661	0.7991518328070613	1.4402298617849525	0.08458057357112611	0.5339868063452636	0.5101467070369707	0.08974798667013051	0.626958024518236	0.9451186203676495	0.09985614378705787	0.7174675235153727	1.3652164640627207	0.07033650870776655	0.4341717936528068	1.3487153518351676	0.016163283700122284	0.5070290268150843	1.3656877993467667	0.1233625558316754	0.7961539379280441	1.4440366510502038	0.18083188137299647	0.447179025437438	-0.15043343065097672	0.18185270143121346	0.3736125022502094	-0.3950947500552243	0.1716966648168646	0.35861028685682306	-0.2598019550127792	0.3591552341889462	0.4910199774799771	-0.05373096874952353	0.45376090525675605	0.5089123742245544	0.22851767334675374	0.5058318926746658	0.4255682238332986	0.5038373683283651	0.5328611743147359	0.2901441958175603	0.5908205784378473	0.5482602570315535	0.3237587978454924	0.6089813684375923	0.5288131191705122	0.4319498014262505	0.638180229962317	0.017043885234601572	0.5078013231956711	-0.05426590194965275	-0.07323326078168743	0.539097490689235	0.21648126091363662	-0.10598723766132459	0.4350247346965552	0.4928287101194415	-0.05696380255868381	0.35706487058045494	0.5842902885002772	-0.07408446230946059	0.3418155154973104	0.5987047113887451	-0.11800508333233019	0.4309104288320937	0.6195134350797216
